# xmcd CD database file
# Copyright (C) 1993-1998 Ti Kan
#
# Track frame offsets:
#	150
#	9430
#	21383
#	31358
#	48470
#	58843
#	65640
#	75415
#	85545
#	98418
#	106608
#	124728
#	135775
#	146765
#	157533
#	170658
#	187550
#	197658
#	211725
#	228703
#	243405
#	255918
#	268058
#	280068
#	293373
#
# Disc length: 4100 seconds
#
# Revision: 4
# Processed by: cddbd v1.4b41PL1 Copyright (c) Steve Scherf et al.
# Submitted via: xmcd 2.2 PL1
#
DISCID=3b100219
DTITLE=50 Years Of Bluegrass Hits 1
DYEAR=1900
DGENRE=
TTITLE0=The Midnight Train
TTITLE1=Kentucky Waltz
TTITLE2=Foggy Mountain Breakdown
TTITLE3=Tramp On The Street
TTITLE4=Love Letters In The Sand
TTITLE5=Salty Dog Blues
TTITLE6=Just A Little Talk With Jesus
TTITLE7=Uncle Pen
TTITLE8=Shackles And Chains
TTITLE9=Charlotte Breakdown
TTITLE10=Dark As A Dungeon
TTITLE11=Are You Missing Me
TTITLE12=I Saw The Light
TTITLE13=Sunny Side Of The Mountain
TTITLE14=Sweeter Than The Flowers
TTITLE15=Muleskinner Blues
TTITLE16=I Know You're Married
TTITLE17=Memories Of Maybelle
TTITLE18=Life's Railway To Heaven
TTITLE19=Dueling Fiddles
TTITLE20=Paradise
TTITLE21=I Wonder Where You Are Tonight
TTITLE22=Reuben
TTITLE23=Maple On The Hill
TTITLE24=What Would You Give In Exchange For Your Soul
EXTD=CD-9033\nCopyright 1992 CMH Records, Inc
EXTT0=
EXTT1=
EXTT2=
EXTT3=
EXTT4=
EXTT5=
EXTT6=
EXTT7=
EXTT8=
EXTT9=
EXTT10=
EXTT11=
EXTT12=
EXTT13=
EXTT14=
EXTT15=
EXTT16=
EXTT17=
EXTT18=
EXTT19=
EXTT20=
EXTT21=
EXTT22=
EXTT23=
EXTT24=
PLAYORDER=
